<svg width="130" height="112" viewBox="0 0 130 112" fill="none" xmlns="http://www.w3.org/2000/svg">
<circle cx="2" cy="110" r="2" transform="rotate(-90 2 110)" fill="#697C37" fill-opacity="0.3"/>
<circle cx="2" cy="74" r="2" transform="rotate(-90 2 74)" fill="#697C37" fill-opacity="0.3"/>
<circle cx="2" cy="38" r="2" transform="rotate(-90 2 38)" fill="#697C37" fill-opacity="0.3"/>
<circle cx="2" cy="92" r="2" transform="rotate(-90 2 92)" fill="#697C37" fill-opacity="0.3"/>
<circle cx="2" cy="56" r="2" transform="rotate(-90 2 56)" fill="#697C37" fill-opacity="0.3"/>
<circle cx="2" cy="20" r="2" transform="rotate(-90 2 20)" fill="#697C37" fill-opacity="0.3"/>
<circle cx="2" cy="2" r="2" transform="rotate(-90 2 2)" fill="#697C37" fill-opacity="0.3"/>
<circle cx="20" cy="110" r="2" transform="rotate(-90 20 110)" fill="#697C37" fill-opacity="0.3"/>
<circle cx="20" cy="74" r="2" transform="rotate(-90 20 74)" fill="#697C37" fill-opacity="0.3"/>
<circle cx="20" cy="38" r="2" transform="rotate(-90 20 38)" fill="#697C37" fill-opacity="0.3"/>
<circle cx="20" cy="92" r="2" transform="rotate(-90 20 92)" fill="#697C37" fill-opacity="0.3"/>
<circle cx="20" cy="56" r="2" transform="rotate(-90 20 56)" fill="#697C37" fill-opacity="0.3"/>
<circle cx="20" cy="20" r="2" transform="rotate(-90 20 20)" fill="#697C37" fill-opacity="0.3"/>
<circle cx="20" cy="2" r="2" transform="rotate(-90 20 2)" fill="#697C37" fill-opacity="0.3"/>
<circle cx="38" cy="110" r="2" transform="rotate(-90 38 110)" fill="#697C37" fill-opacity="0.3"/>
<circle cx="38" cy="74" r="2" transform="rotate(-90 38 74)" fill="#697C37" fill-opacity="0.3"/>
<circle cx="38" cy="38" r="2" transform="rotate(-90 38 38)" fill="#697C37" fill-opacity="0.3"/>
<circle cx="38" cy="92" r="2" transform="rotate(-90 38 92)" fill="#697C37" fill-opacity="0.3"/>
<circle cx="38" cy="56" r="2" transform="rotate(-90 38 56)" fill="#697C37" fill-opacity="0.3"/>
<circle cx="38" cy="20" r="2" transform="rotate(-90 38 20)" fill="#697C37" fill-opacity="0.3"/>
<circle cx="38" cy="2" r="2" transform="rotate(-90 38 2)" fill="#697C37" fill-opacity="0.3"/>
<circle cx="56" cy="38" r="2" transform="rotate(-90 56 38)" fill="#697C37" fill-opacity="0.3"/>
<circle cx="56" cy="20" r="2" transform="rotate(-90 56 20)" fill="#697C37" fill-opacity="0.3"/>
<circle cx="56" cy="2" r="2" transform="rotate(-90 56 2)" fill="#697C37" fill-opacity="0.3"/>
<circle cx="74" cy="38" r="2" transform="rotate(-90 74 38)" fill="#697C37" fill-opacity="0.3"/>
<circle cx="74" cy="20" r="2" transform="rotate(-90 74 20)" fill="#697C37" fill-opacity="0.3"/>
<circle cx="74" cy="2" r="2" transform="rotate(-90 74 2)" fill="#697C37" fill-opacity="0.3"/>
<circle cx="92" cy="38" r="2" transform="rotate(-90 92 38)" fill="#697C37" fill-opacity="0.3"/>
<circle cx="92" cy="20" r="2" transform="rotate(-90 92 20)" fill="#697C37" fill-opacity="0.3"/>
<circle cx="92" cy="2" r="2" transform="rotate(-90 92 2)" fill="#697C37" fill-opacity="0.3"/>
<circle cx="110" cy="38" r="2" transform="rotate(-90 110 38)" fill="#697C37" fill-opacity="0.3"/>
<circle cx="110" cy="20" r="2" transform="rotate(-90 110 20)" fill="#697C37" fill-opacity="0.3"/>
<circle cx="110" cy="2" r="2" transform="rotate(-90 110 2)" fill="#697C37" fill-opacity="0.3"/>
<circle cx="128" cy="38" r="2" transform="rotate(-90 128 38)" fill="#697C37" fill-opacity="0.3"/>
<circle cx="56" cy="110" r="2" transform="rotate(-90 56 110)" fill="#697C37" fill-opacity="0.3"/>
<circle cx="56" cy="74" r="2" transform="rotate(-90 56 74)" fill="#697C37" fill-opacity="0.3"/>
<circle cx="56" cy="92" r="2" transform="rotate(-90 56 92)" fill="#697C37" fill-opacity="0.3"/>
<circle cx="56" cy="56" r="2" transform="rotate(-90 56 56)" fill="#697C37" fill-opacity="0.3"/>
<circle cx="74" cy="110" r="2" transform="rotate(-90 74 110)" fill="#697C37" fill-opacity="0.3"/>
<circle cx="74" cy="74" r="2" transform="rotate(-90 74 74)" fill="#697C37" fill-opacity="0.3"/>
<circle cx="74" cy="92" r="2" transform="rotate(-90 74 92)" fill="#697C37" fill-opacity="0.3"/>
<circle cx="74" cy="56" r="2" transform="rotate(-90 74 56)" fill="#697C37" fill-opacity="0.3"/>
<circle cx="92" cy="110" r="2" transform="rotate(-90 92 110)" fill="#697C37" fill-opacity="0.3"/>
<circle cx="92" cy="74" r="2" transform="rotate(-90 92 74)" fill="#697C37" fill-opacity="0.3"/>
<circle cx="92" cy="92" r="2" transform="rotate(-90 92 92)" fill="#697C37" fill-opacity="0.3"/>
<circle cx="92" cy="56" r="2" transform="rotate(-90 92 56)" fill="#697C37" fill-opacity="0.3"/>
<circle cx="110" cy="110" r="2" transform="rotate(-90 110 110)" fill="#697C37" fill-opacity="0.3"/>
<circle cx="110" cy="74" r="2" transform="rotate(-90 110 74)" fill="#697C37" fill-opacity="0.3"/>
<circle cx="110" cy="92" r="2" transform="rotate(-90 110 92)" fill="#697C37" fill-opacity="0.3"/>
<circle cx="110" cy="56" r="2" transform="rotate(-90 110 56)" fill="#697C37" fill-opacity="0.3"/>
<circle cx="128" cy="110" r="2" transform="rotate(-90 128 110)" fill="#697C37" fill-opacity="0.3"/>
<circle cx="128" cy="74" r="2" transform="rotate(-90 128 74)" fill="#697C37" fill-opacity="0.3"/>
<circle cx="128" cy="92" r="2" transform="rotate(-90 128 92)" fill="#697C37" fill-opacity="0.3"/>
<circle cx="128" cy="56" r="2" transform="rotate(-90 128 56)" fill="#697C37" fill-opacity="0.3"/>
<circle cx="128" cy="20" r="2" transform="rotate(-90 128 20)" fill="#697C37" fill-opacity="0.3"/>
<circle cx="128" cy="2" r="2" transform="rotate(-90 128 2)" fill="#697C37" fill-opacity="0.3"/>
</svg>
