<svg width="181" height="36" viewBox="0 0 181 36" fill="none" xmlns="http://www.w3.org/2000/svg">
<path d="M35.472 29.576C35.76 30.184 35.904 30.776 35.904 31.352C35.904 32.408 35.472 33.304 34.608 34.04C33.776 34.776 32.816 35.144 31.728 35.144C30.992 35.144 30.32 34.952 29.712 34.568C29.104 34.184 28.624 33.608 28.272 32.84L26.112 27.992H10.56L8.352 32.84C8 33.608 7.504 34.184 6.864 34.568C6.256 34.952 5.584 35.144 4.848 35.144C3.76 35.144 2.768 34.776 1.872 34.04C1.008 33.304 0.576 32.408 0.576 31.352C0.576 30.776 0.72 30.184 1.008 29.576L13.68 3.56C14.096 2.696 14.704 2.04 15.504 1.592C16.336 1.112 17.248 0.871999 18.24 0.871999C19.2 0.871999 20.096 1.112 20.928 1.592C21.76 2.04 22.384 2.696 22.8 3.56L35.472 29.576ZM13.536 21.368H23.136L18.336 10.664L13.536 21.368ZM69.6356 0.919998C70.8516 0.919998 71.8436 1.32 72.6116 2.12C73.3796 2.92 73.7636 3.96 73.7636 5.24V31.352C73.7636 32.568 73.4116 33.528 72.7076 34.232C72.0036 34.936 71.0756 35.288 69.9236 35.288C68.8036 35.288 67.8756 34.936 67.1396 34.232C66.4356 33.528 66.0836 32.568 66.0836 31.352V17.24L60.6116 27.32C60.0676 28.344 59.4916 29.08 58.8836 29.528C58.2756 29.944 57.5556 30.152 56.7236 30.152C55.8916 30.152 55.1716 29.944 54.5636 29.528C53.9556 29.08 53.3796 28.344 52.8356 27.32L47.4116 17.528V31.352C47.4116 32.536 47.0436 33.496 46.3076 34.232C45.6036 34.936 44.6756 35.288 43.5236 35.288C42.4036 35.288 41.4756 34.936 40.7396 34.232C40.0356 33.528 39.6836 32.568 39.6836 31.352V5.24C39.6836 3.96 40.0676 2.92 40.8356 2.12C41.6356 1.32 42.6436 0.919998 43.8596 0.919998C44.7236 0.919998 45.5076 1.176 46.2116 1.688C46.9156 2.168 47.5076 2.872 47.9876 3.8L56.8196 20.408L65.6036 3.8C66.5956 1.88 67.9396 0.919998 69.6356 0.919998ZM112.394 29.576C112.682 30.184 112.826 30.776 112.826 31.352C112.826 32.408 112.394 33.304 111.53 34.04C110.698 34.776 109.738 35.144 108.65 35.144C107.914 35.144 107.242 34.952 106.634 34.568C106.026 34.184 105.546 33.608 105.194 32.84L103.034 27.992H87.4819L85.2739 32.84C84.9219 33.608 84.4259 34.184 83.7859 34.568C83.1779 34.952 82.5059 35.144 81.7699 35.144C80.6819 35.144 79.6899 34.776 78.7939 34.04C77.9299 33.304 77.4979 32.408 77.4979 31.352C77.4979 30.776 77.6419 30.184 77.9299 29.576L90.6019 3.56C91.0179 2.696 91.6259 2.04 92.4259 1.592C93.2579 1.112 94.1699 0.871999 95.1619 0.871999C96.1219 0.871999 97.0179 1.112 97.8499 1.592C98.6819 2.04 99.3059 2.696 99.7219 3.56L112.394 29.576ZM90.4579 21.368H100.058L95.2579 10.664L90.4579 21.368ZM144.974 29.384C145.55 30.248 145.838 31.064 145.838 31.832C145.838 32.856 145.406 33.72 144.542 34.424C143.71 35.096 142.734 35.432 141.614 35.432C140.846 35.432 140.126 35.256 139.454 34.904C138.782 34.552 138.206 34.024 137.726 33.32L131.486 24.2C131.038 23.56 130.558 23.096 130.046 22.808C129.566 22.488 128.99 22.328 128.318 22.328H125.198V30.92C125.198 32.264 124.814 33.336 124.046 34.136C123.278 34.904 122.222 35.288 120.878 35.288C119.534 35.288 118.462 34.904 117.662 34.136C116.894 33.336 116.51 32.264 116.51 30.92V5.24C116.51 3.928 116.862 2.92 117.566 2.216C118.27 1.512 119.278 1.16 120.59 1.16H132.638C136.734 1.16 139.806 2.056 141.854 3.848C143.934 5.608 144.974 8.168 144.974 11.528C144.974 14.088 144.27 16.264 142.862 18.056C141.454 19.816 139.47 21 136.91 21.608C137.966 21.768 138.878 22.12 139.646 22.664C140.446 23.208 141.23 24.024 141.998 25.112L144.974 29.384ZM131.246 15.704C133.198 15.704 134.59 15.4 135.422 14.792C136.286 14.184 136.718 13.192 136.718 11.816C136.718 10.408 136.286 9.4 135.422 8.792C134.59 8.152 133.198 7.832 131.246 7.832H125.102V15.704H131.246ZM179.007 28.376C179.839 29.176 180.255 30.104 180.255 31.16C180.255 32.216 179.855 33.144 179.055 33.944C178.255 34.744 177.311 35.144 176.223 35.144C175.039 35.144 173.951 34.632 172.959 33.608L159.279 19.592V30.92C159.279 32.264 158.879 33.336 158.079 34.136C157.279 34.904 156.191 35.288 154.815 35.288C153.471 35.288 152.399 34.904 151.599 34.136C150.831 33.336 150.447 32.264 150.447 30.92V5.24C150.447 3.928 150.831 2.888 151.599 2.12C152.399 1.32 153.471 0.919998 154.815 0.919998C156.191 0.919998 157.279 1.32 158.079 2.12C158.879 2.888 159.279 3.928 159.279 5.24V15.8L172.767 2.216C173.599 1.352 174.543 0.919998 175.599 0.919998C176.655 0.919998 177.583 1.32 178.383 2.12C179.183 2.888 179.583 3.8 179.583 4.856C179.583 5.912 179.119 6.888 178.191 7.784L168.351 17.432L179.007 28.376Z" fill="#697C37"/>
</svg>
